<svg viewBox="0 0 150 150" xmlns="http://www.w3.org/2000/svg">
  <defs>
    <linearGradient id="sky" x1="0" y1="0" x2="0" y2="1">
      <stop offset="0%" stop-color="#d6eaf8"/>
      <stop offset="100%" stop-color="#eef4fa"/>
    </linearGradient>
    <clipPath id="bl">
      <path d="M75 16 Q40 16 33 52 Q28 78 50 92 L55 94 L95 94 L100 92 Q122 78 117 52 Q110 16 75 16 Z"/>
    </clipPath>
  </defs>
  <rect width="150" height="150" rx="34" fill="url(#sky)"/>
  <g clip-path="url(#bl)">
    <path d="M75 16 Q40 16 33 52 Q28 78 50 92 L55 94 L95 94 L100 92 Q122 78 117 52 Q110 16 75 16 Z" fill="#f5c542" opacity="0.45"/>
    <path d="M36 14 L52 14 L50 28 L34 26 Z" fill="#e66a9e" opacity="0.6"/>
    <path d="M52 14 L66 14 L64 28 L50 28 Z" fill="#a78bfa" opacity="0.62"/>
    <path d="M66 14 L80 14 L78 28 L64 28 Z" fill="#f5c542" opacity="0.68"/>
    <path d="M80 14 L94 14 L92 28 L78 28 Z" fill="#5ec4e3" opacity="0.65"/>
    <path d="M94 14 L108 16 L106 30 L92 28 Z" fill="#ef8b6e" opacity="0.6"/>
    <path d="M108 16 L120 22 L118 34 L106 30 Z" fill="#4fd1a8" opacity="0.55"/>
    <path d="M24 22 L36 14 L34 26 L22 32 Z" fill="#5ec4e3" opacity="0.55"/>
    <path d="M22 32 L34 26 L32 42 L20 40 Z" fill="#f5c542" opacity="0.55"/>
    <path d="M34 26 L50 28 L48 44 L32 42 Z" fill="#4fd1a8" opacity="0.62"/>
    <path d="M50 28 L64 28 L62 44 L48 44 Z" fill="#e66a9e" opacity="0.58"/>
    <path d="M64 28 L78 28 L76 44 L62 44 Z" fill="#ef8b6e" opacity="0.62"/>
    <path d="M78 28 L92 28 L90 44 L76 44 Z" fill="#a78bfa" opacity="0.6"/>
    <path d="M92 28 L106 30 L104 46 L90 44 Z" fill="#5ec4e3" opacity="0.58"/>
    <path d="M106 30 L118 34 L116 48 L104 46 Z" fill="#f5c542" opacity="0.55"/>
    <path d="M20 40 L32 42 L30 58 L20 56 Z" fill="#a78bfa" opacity="0.52"/>
    <path d="M32 42 L48 44 L46 60 L30 58 Z" fill="#ef8b6e" opacity="0.6"/>
    <path d="M48 44 L62 44 L60 60 L46 60 Z" fill="#5ec4e3" opacity="0.58"/>
    <path d="M62 44 L76 44 L74 60 L60 60 Z" fill="#f5c542" opacity="0.6"/>
    <path d="M76 44 L90 44 L88 60 L74 60 Z" fill="#e66a9e" opacity="0.58"/>
    <path d="M90 44 L104 46 L102 62 L88 60 Z" fill="#4fd1a8" opacity="0.56"/>
    <path d="M104 46 L116 48 L114 62 L102 62 Z" fill="#ef8b6e" opacity="0.52"/>
    <path d="M20 56 L30 58 L28 72 L22 70 Z" fill="#4fd1a8" opacity="0.5"/>
    <path d="M30 58 L46 60 L44 76 L28 72 Z" fill="#f5c542" opacity="0.58"/>
    <path d="M46 60 L60 60 L58 76 L44 76 Z" fill="#a78bfa" opacity="0.56"/>
    <path d="M60 60 L74 60 L72 76 L58 76 Z" fill="#5ec4e3" opacity="0.58"/>
    <path d="M74 60 L88 60 L86 76 L72 76 Z" fill="#ef8b6e" opacity="0.56"/>
    <path d="M88 60 L102 62 L100 78 L86 76 Z" fill="#e66a9e" opacity="0.54"/>
    <path d="M102 62 L114 62 L112 76 L100 78 Z" fill="#5ec4e3" opacity="0.5"/>
    <path d="M28 72 L44 76 L42 90 L32 86 Z" fill="#e66a9e" opacity="0.52"/>
    <path d="M44 76 L58 76 L56 92 L42 90 Z" fill="#4fd1a8" opacity="0.56"/>
    <path d="M58 76 L72 76 L70 92 L56 92 Z" fill="#f5c542" opacity="0.55"/>
    <path d="M72 76 L86 76 L84 92 L70 92 Z" fill="#a78bfa" opacity="0.54"/>
    <path d="M86 76 L100 78 L98 92 L84 92 Z" fill="#ef8b6e" opacity="0.52"/>
    <path d="M100 78 L112 76 L108 90 L98 92 Z" fill="#f5c542" opacity="0.48"/>
  </g>
  <g clip-path="url(#bl)" stroke="#fff" stroke-width="0.5" opacity="0.22" fill="none">
    <path d="M20 28 L120 28"/>
    <path d="M18 44 L118 44"/>
    <path d="M18 60 L116 60"/>
    <path d="M20 76 L114 76"/>
    <path d="M30 92 L110 92"/>
    <path d="M34 14 L28 92"/><path d="M50 14 L42 92"/>
    <path d="M64 14 L56 94"/><path d="M78 14 L70 94"/>
    <path d="M92 14 L84 94"/><path d="M106 16 L98 92"/>
  </g>
  <path d="M75 16 Q40 16 33 52 Q28 78 50 92 L55 94 L95 94 L100 92 Q122 78 117 52 Q110 16 75 16 Z" fill="none" stroke="#fff" stroke-width="1" opacity="0.3"/>
  <line x1="60" y1="94" x2="63" y2="108" stroke="#c4a882" stroke-width="0.8" opacity="0.45"/>
  <line x1="90" y1="94" x2="87" y2="108" stroke="#c4a882" stroke-width="0.8" opacity="0.45"/>
  <rect x="60" y="108" width="30" height="14" rx="3" fill="#c4a882" opacity="0.5" stroke="#b09570" stroke-width="0.6"/>
  <line x1="60" y1="114" x2="90" y2="114" stroke="#b09570" stroke-width="0.4" opacity="0.3"/>
  <ellipse cx="18" cy="58" rx="12" ry="5" fill="#fff" opacity="0.42"/>
  <ellipse cx="134" cy="46" rx="10" ry="4.5" fill="#fff" opacity="0.35"/>
  <ellipse cx="20" cy="110" rx="9" ry="3.5" fill="#fff" opacity="0.2"/>
  <ellipse cx="132" cy="100" rx="8" ry="3.5" fill="#fff" opacity="0.18"/>
</svg>
